<?xml version="1.0" encoding="utf-8"?>
<!-- Generator: Adobe Illustrator 19.0.0, SVG Export Plug-In . SVG Version: 6.00 Build 0)  -->
<svg version="1.1" id="Layer_1" xmlns="http://www.w3.org/2000/svg" xmlns:xlink="http://www.w3.org/1999/xlink" x="0px" y="0px"
	 viewBox="0 0 18.4 18.5" style="enable-background:new 0 0 18.4 18.5;" xml:space="preserve">
<style type="text/css">
	.st0{fill:none;stroke:#919191;stroke-linejoin:round;stroke-miterlimit:22.9256;}
</style>
<g id="XMLID_122_">
	<path id="XMLID_123_" class="st0" d="M16,11.3c0,3-1.3,5.3-4.1,5.3H5.5c-2.8,0-4.1-2.4-4.1-5.4 M0.4,11.6h17 M2.8,18.1l0.6-1
		 M14.6,18.1l-0.6-1 M11.7,3.4c0-1.2,1-2.2,2.1-2.2l0,0c1.2,0,2.1,0.9,2.1,2.1v7.8 M9,4.5C9.4,3.6,10.2,3,11,3.3l1.2,0.4
		c0.7,0.3,1,1.3,0.7,2.2 M13.4,6.2L8.4,4.4"/>
</g>
</svg>
