<?xml version="1.0" encoding="utf-8"?>
<!-- Generator: Adobe Illustrator 19.0.0, SVG Export Plug-In . SVG Version: 6.00 Build 0)  -->
<svg version="1.1" id="Layer_1" xmlns="http://www.w3.org/2000/svg" xmlns:xlink="http://www.w3.org/1999/xlink" x="0px" y="0px"
	 viewBox="0 0 18.4 18.5" style="enable-background:new 0 0 18.4 18.5;" xml:space="preserve">
<style type="text/css">
	.st0{fill:none;stroke:#919191;stroke-linejoin:round;stroke-miterlimit:22.9256;}
	.st1{fill:none;stroke:#919191;stroke-miterlimit:10;}
</style>
<g id="XMLID_72_">
	<path id="XMLID_59_" class="st0" d="M2.1,8c4.4-0.7,10.1-0.6,14.1,0.1l1.5,5.4h-17L2.1,8L2.1,8z"/>
	<polyline id="XMLID_76_" class="st1" points="3,7.6 3,2.3 15.2,2.3 15.2,8.3 	"/>
	<polyline id="XMLID_58_" class="st1" points="1.9,13.1 1.9,16.6 4.9,16.6 4.9,15.6 13.9,15.6 13.9,16.6 16.9,16.6 16.9,13.1 	"/>
	<path id="XMLID_74_" class="st0" d="M4.6,8c0,0-0.9-2.5,0.8-2.8l2.4-0.1c0.8,0,1.5,0.6,1.3,2.5"/>
	<path id="XMLID_73_" class="st0" d="M9.6,7.9c0,0-0.8-2.6,0.9-2.8l2.4,0c0.8,0,1.5,0.6,1.2,2.5"/>
</g>
</svg>
